<?xml version="1.0" encoding="UTF-8"?>
<!DOCTYPE svg PUBLIC "-//W3C//DTD SVG 1.1//EN" "http://www.w3.org/Graphics/SVG/1.1/DTD/svg11.dtd">
<svg xmlns="http://www.w3.org/2000/svg" version="1.1" width="929px" height="715px" style="shape-rendering:geometricPrecision; text-rendering:geometricPrecision; image-rendering:optimizeQuality; fill-rule:evenodd; clip-rule:evenodd" xmlns:xlink="http://www.w3.org/1999/xlink">
<g><path style="opacity:0.977" fill="#fefffe" d="M 279.5,-0.5 C 286.5,-0.5 293.5,-0.5 300.5,-0.5C 361.225,8.7269 391.059,44.0602 390,105.5C 383.105,150.73 357.271,178.23 312.5,188C 269.529,196.124 234.029,183.624 206,150.5C 184.536,116.305 183.203,81.3048 202,45.5C 220.452,17.9093 246.286,2.57599 279.5,-0.5 Z M 284.5,36.5 C 323.161,36.9961 343.828,56.4961 346.5,95C 346.142,120.393 334.476,138.393 311.5,149C 286.409,157.435 264.576,152.269 246,133.5C 228.462,108.396 228.128,83.0631 245,57.5C 255.653,45.5922 268.82,38.5922 284.5,36.5 Z"/></g>
<g><path style="opacity:0.974" fill="#fefffe" d="M 22.5,2.5 C 52.1685,2.33335 81.8352,2.50002 111.5,3C 136.819,3.74309 157.319,13.9098 173,33.5C 186.213,58.9025 185.546,83.9025 171,108.5C 164.207,117.3 155.707,123.8 145.5,128C 159.167,147.667 172.833,167.333 186.5,187C 170.833,187.667 155.167,187.667 139.5,187C 127.957,170.08 116.29,153.246 104.5,136.5C 91.8508,135.501 79.1842,135.168 66.5,135.5C 66.5,231.167 66.5,326.833 66.5,422.5C 51.8333,422.5 37.1667,422.5 22.5,422.5C 22.5,282.5 22.5,142.5 22.5,2.5 Z M 66.5,38.5 C 80.8372,38.3334 95.1705,38.5001 109.5,39C 130.933,42.3475 140.433,54.8475 138,76.5C 135.804,87.0326 129.638,94.1993 119.5,98C 114.65,99.7315 109.65,100.732 104.5,101C 91.8377,101.5 79.1711,101.667 66.5,101.5C 66.5,80.5 66.5,59.5 66.5,38.5 Z"/></g>
<g><path style="opacity:0.97" fill="#fefffe" d="M 408.5,2.5 C 422.833,2.5 437.167,2.5 451.5,2.5C 451.5,52.1667 451.5,101.833 451.5,151.5C 482.167,151.5 512.833,151.5 543.5,151.5C 543.5,163.5 543.5,175.5 543.5,187.5C 498.167,187.5 452.833,187.5 407.5,187.5C 407.479,125.831 407.812,64.1643 408.5,2.5 Z"/></g>
<g><path style="opacity:0.974" fill="#fefffe" d="M 651.5,231.5 C 672.534,230.339 692.867,233.506 712.5,241C 717.16,242.995 721.494,245.495 725.5,248.5C 721,259.5 716.5,270.5 712,281.5C 692.436,269.321 671.269,264.821 648.5,268C 633.24,270.222 627.073,278.722 630,293.5C 632.921,297.092 636.421,299.925 640.5,302C 658.4,307.309 676.4,312.309 694.5,317C 727.905,328.643 739.405,351.477 729,385.5C 720.853,402.337 707.687,413.171 689.5,418C 654.691,426.23 621.357,422.23 589.5,406C 586.81,404.302 584.477,402.302 582.5,400C 586.471,391.225 590.304,382.392 594,373.5C 594.687,371.445 595.854,369.779 597.5,368.5C 622.009,385.13 648.676,390.297 677.5,384C 688.404,380.024 692.238,372.524 689,361.5C 684.751,356.627 679.584,353.127 673.5,351C 659.586,347.022 645.586,343.355 631.5,340C 616.56,336.451 604.06,328.951 594,317.5C 585.969,302.614 584.302,286.947 589,270.5C 598.48,250.315 614.313,238.148 636.5,234C 641.661,233.268 646.661,232.434 651.5,231.5 Z"/></g>
<g><path style="opacity:0.978" fill="#fefffe" d="M 96.5,234.5 C 110.5,234.5 124.5,234.5 138.5,234.5C 138.5,284.167 138.5,333.833 138.5,383.5C 168.833,383.5 199.167,383.5 229.5,383.5C 229.5,395.5 229.5,407.5 229.5,419.5C 185.167,419.5 140.833,419.5 96.5,419.5C 96.5,357.833 96.5,296.167 96.5,234.5 Z"/></g>
<g><path style="opacity:0.981" fill="#fefffe" d="M 247.5,234.5 C 293.167,234.5 338.833,234.5 384.5,234.5C 384.5,246.167 384.5,257.833 384.5,269.5C 352.833,269.5 321.167,269.5 289.5,269.5C 289.5,282.5 289.5,295.5 289.5,308.5C 317.167,308.5 344.833,308.5 372.5,308.5C 372.5,319.833 372.5,331.167 372.5,342.5C 344.833,342.5 317.167,342.5 289.5,342.5C 289.5,356.5 289.5,370.5 289.5,384.5C 322.167,384.5 354.833,384.5 387.5,384.5C 387.5,396.167 387.5,407.833 387.5,419.5C 340.833,419.5 294.167,419.5 247.5,419.5C 247.5,357.833 247.5,296.167 247.5,234.5 Z"/></g>
<g><path style="opacity:0.972" fill="#fefffe" d="M 407.5,234.5 C 436.502,234.333 465.502,234.5 494.5,235C 543.638,238.459 566.805,264.626 564,313.5C 560.075,335.086 548.241,350.586 528.5,360C 541.71,379.587 555.043,399.087 568.5,418.5C 553.178,419.666 537.844,419.833 522.5,419C 511.167,402.333 499.833,385.667 488.5,369C 475.838,368.5 463.171,368.333 450.5,368.5C 450.5,385.5 450.5,402.5 450.5,419.5C 436.167,419.5 421.833,419.5 407.5,419.5C 407.5,357.833 407.5,296.167 407.5,234.5 Z M 450.5,270.5 C 464.837,270.333 479.171,270.5 493.5,271C 514.716,274.581 523.883,287.081 521,308.5C 516.704,324.446 506.204,332.612 489.5,333C 476.504,333.5 463.504,333.667 450.5,333.5C 450.5,312.5 450.5,291.5 450.5,270.5 Z"/></g>
<g><path style="opacity:0.976" fill="#fffefe" d="M 928.5,568.5 C 928.5,581.167 928.5,593.833 928.5,606.5C 904.833,606.5 881.167,606.5 857.5,606.5C 858.833,593.833 858.833,581.167 857.5,568.5C 868.5,568.5 879.5,568.5 890.5,568.5C 890.212,541.106 885.712,514.439 877,488.5C 864.753,460.252 844.92,439.085 817.5,425C 809.365,420.93 801.031,417.43 792.5,414.5C 792.333,400.829 792.5,387.163 793,373.5C 821.497,382.163 847.331,395.663 870.5,414C 901.464,443.096 919.298,478.929 924,521.5C 925.84,537.288 927.34,552.955 928.5,568.5 Z"/></g>
<g><path style="opacity:0.974" fill="#fbaf16" d="M 149.5,714.5 C 137.833,714.5 126.167,714.5 114.5,714.5C 71.8034,709.407 38.97,688.74 16,652.5C 7.34843,636.382 1.84843,619.382 -0.5,601.5C -0.5,592.167 -0.5,582.833 -0.5,573.5C 9.03336,513.793 43.3667,476.959 102.5,463C 148.724,454.47 189.724,465.137 225.5,495C 258.183,529.202 270.016,569.702 261,616.5C 250.399,659.542 224.566,689.375 183.5,706C 172.27,709.808 160.937,712.641 149.5,714.5 Z M 126.5,492.5 C 159.454,491.857 186.621,503.857 208,528.5C 233.618,567.29 233.952,606.29 209,645.5C 184.187,674.666 152.687,686.499 114.5,681C 73.4358,673.224 47.9358,649.057 38,608.5C 29.9155,558.499 48.4155,522.332 93.5,500C 104.316,496.043 115.316,493.543 126.5,492.5 Z"/></g>
<g><path style="opacity:0.973" fill="#fbaf16" d="M 446.5,714.5 C 434.833,714.5 423.167,714.5 411.5,714.5C 340.214,702.377 301.88,660.21 296.5,588C 298.369,530.512 325.702,490.846 378.5,469C 420.971,454.847 461.971,458.18 501.5,479C 547.074,509.666 566.574,552.5 560,607.5C 550.317,660.186 519.817,694.353 468.5,710C 461.069,711.719 453.735,713.219 446.5,714.5 Z M 424.5,492.5 C 476.33,492.857 509.163,517.857 523,567.5C 530.651,615.696 513.151,651.196 470.5,674C 432.839,688.585 397.839,683.918 365.5,660C 339.19,635.403 329.023,605.237 335,569.5C 342.985,531.181 365.818,506.681 403.5,496C 410.608,494.593 417.608,493.426 424.5,492.5 Z"/></g>
<g><path style="opacity:0.974" fill="#fcaf17" d="M 857.5,568.5 C 858.833,581.167 858.833,593.833 857.5,606.5C 850.339,652.336 825.672,684.836 783.5,704C 770.753,708.934 757.753,712.434 744.5,714.5C 732.833,714.5 721.167,714.5 709.5,714.5C 661.485,708.412 626.652,683.746 605,640.5C 588.736,598.852 591.402,558.519 613,519.5C 634.562,487.117 664.729,467.951 703.5,462C 748.243,455.345 787.576,466.678 821.5,496C 841.34,516.181 853.34,540.347 857.5,568.5 Z M 721.5,492.5 C 754.454,491.857 781.621,503.857 803,528.5C 828.618,567.29 828.952,606.29 804,645.5C 779.187,674.666 747.687,686.499 709.5,681C 668.436,673.224 642.936,649.057 633,608.5C 625.655,568.858 637.488,536.358 668.5,511C 684.628,500.125 702.295,493.959 721.5,492.5 Z"/></g>
<g><path style="opacity:0.966" fill="#fbaf16" d="M 417.5,519.5 C 428.58,519.126 439.58,519.793 450.5,521.5C 450.5,565.5 450.5,609.5 450.5,653.5C 443.532,654.775 436.532,655.775 429.5,656.5C 422.146,655.72 414.812,654.72 407.5,653.5C 407.333,609.832 407.5,566.165 408,522.5C 411.245,521.428 414.411,520.428 417.5,519.5 Z"/></g>
<g><path style="opacity:0.989" fill="#fbaf16" d="M 66.5,566.5 C 111.167,566.5 155.833,566.5 200.5,566.5C 203.167,580.501 203.167,594.501 200.5,608.5C 155.833,608.5 111.167,608.5 66.5,608.5C 65.1366,601.567 64.1366,594.567 63.5,587.5C 64.1366,580.433 65.1366,573.433 66.5,566.5 Z"/></g>
<g><path style="opacity:0.987" fill="#fbaf16" d="M 661.5,566.5 C 705.838,566.167 750.172,566.5 794.5,567.5C 798.289,580.767 798.456,594.101 795,607.5C 750.571,608.663 706.071,608.83 661.5,608C 657.517,594.167 657.517,580.334 661.5,566.5 Z"/></g>
</svg>
