<?xml version="1.0" encoding="UTF-8"?>
<!DOCTYPE svg PUBLIC "-//W3C//DTD SVG 1.1//EN" "http://www.w3.org/Graphics/SVG/1.1/DTD/svg11.dtd">
<svg xmlns="http://www.w3.org/2000/svg" version="1.1" width="929px" height="715px" style="shape-rendering:geometricPrecision; text-rendering:geometricPrecision; image-rendering:optimizeQuality; fill-rule:evenodd; clip-rule:evenodd" xmlns:xlink="http://www.w3.org/1999/xlink">
<g><path style="opacity:0.977" fill="#000000" d="M 273.5,-0.5 C 284.167,-0.5 294.833,-0.5 305.5,-0.5C 337.343,4.33313 361.843,20.3331 379,47.5C 396.811,85.0074 393.811,120.674 370,154.5C 342.545,183.207 309.045,194.374 269.5,188C 221.422,178.26 194.589,149.093 189,100.5C 189.775,43.8936 217.941,10.2269 273.5,-0.5 Z M 279.5,36.5 C 303.32,33.7083 322.486,41.7083 337,60.5C 350.734,85.7416 349.401,110.075 333,133.5C 311.526,153.829 287.359,157.662 260.5,145C 236.84,128.366 228.34,105.866 235,77.5C 241.747,54.9154 256.58,41.2487 279.5,36.5 Z"/></g>
<g><path style="opacity:0.975" fill="#000000" d="M 22.5,2.5 C 54.1684,2.33335 85.8351,2.50002 117.5,3C 162.516,8.33362 184.016,33.5003 182,78.5C 178.646,101.518 166.479,118.018 145.5,128C 159.418,146.753 172.751,165.919 185.5,185.5C 170.178,186.666 154.844,186.833 139.5,186C 127.587,169.508 115.92,152.842 104.5,136C 91.8377,135.5 79.1711,135.333 66.5,135.5C 66.5,230.833 66.5,326.167 66.5,421.5C 51.8333,421.5 37.1667,421.5 22.5,421.5C 22.5,281.833 22.5,142.167 22.5,2.5 Z M 66.5,37.5 C 79.8375,37.3334 93.1708,37.5001 106.5,38C 135.487,42.7998 144.654,58.9665 134,86.5C 127.73,94.2227 119.564,98.7227 109.5,100C 95.1705,100.5 80.8372,100.667 66.5,100.5C 66.5,79.5 66.5,58.5 66.5,37.5 Z"/></g>
<g><path style="opacity:0.971" fill="#000000" d="M 408.5,2.5 C 422.833,2.5 437.167,2.5 451.5,2.5C 451.5,51.8333 451.5,101.167 451.5,150.5C 481.833,150.5 512.167,150.5 542.5,150.5C 542.5,162.5 542.5,174.5 542.5,186.5C 497.5,186.5 452.5,186.5 407.5,186.5C 407.297,125.162 407.63,63.8288 408.5,2.5 Z"/></g>
<g><path style="opacity:0.974" fill="#000000" d="M 645.5,231.5 C 668.957,229.304 691.624,232.47 713.5,241C 717.828,242.829 721.828,245.162 725.5,248C 721.121,258.974 716.455,269.807 711.5,280.5C 689.998,267.361 666.998,263.528 642.5,269C 630.062,273.705 626.229,282.205 631,294.5C 636.435,299.876 642.935,303.376 650.5,305C 670.124,308.655 689.124,314.322 707.5,322C 731.338,336.84 738.504,357.673 729,384.5C 722.199,398.842 711.365,409.009 696.5,415C 657.764,426.699 620.764,422.699 585.5,403C 584.313,401.981 583.313,400.814 582.5,399.5C 587.004,388.497 592.004,377.83 597.5,367.5C 622.189,384.805 649.189,389.971 678.5,383C 688.316,378.868 691.816,371.702 689,361.5C 684.908,355.755 679.408,351.922 672.5,350C 655.368,345.8 638.368,341.134 621.5,336C 589.828,323.146 579.328,300.312 590,267.5C 596.62,253.548 607.12,243.714 621.5,238C 629.459,235.179 637.459,233.013 645.5,231.5 Z"/></g>
<g><path style="opacity:0.984" fill="#000000" d="M 96.5,234.5 C 110.5,234.5 124.5,234.5 138.5,234.5C 138.5,283.833 138.5,333.167 138.5,382.5C 168.833,382.5 199.167,382.5 229.5,382.5C 229.5,394.5 229.5,406.5 229.5,418.5C 185.167,418.5 140.833,418.5 96.5,418.5C 96.5,357.167 96.5,295.833 96.5,234.5 Z"/></g>
<g><path style="opacity:0.987" fill="#000000" d="M 247.5,234.5 C 292.833,234.5 338.167,234.5 383.5,234.5C 383.5,246.167 383.5,257.833 383.5,269.5C 352.167,269.5 320.833,269.5 289.5,269.5C 289.5,282.5 289.5,295.5 289.5,308.5C 317.167,308.5 344.833,308.5 372.5,308.5C 372.5,319.833 372.5,331.167 372.5,342.5C 344.833,342.5 317.167,342.5 289.5,342.5C 289.5,356.167 289.5,369.833 289.5,383.5C 322.167,383.5 354.833,383.5 387.5,383.5C 387.5,395.167 387.5,406.833 387.5,418.5C 340.833,418.5 294.167,418.5 247.5,418.5C 247.5,357.167 247.5,295.833 247.5,234.5 Z"/></g>
<g><path style="opacity:0.977" fill="#000000" d="M 407.5,234.5 C 438.502,234.333 469.502,234.5 500.5,235C 545.925,241.082 567.091,266.915 564,312.5C 560.292,334.42 548.459,350.253 528.5,360C 541.833,379.333 555.167,398.667 568.5,418C 553.167,418.667 537.833,418.667 522.5,418C 511.043,401.587 499.71,385.087 488.5,368.5C 475.851,367.501 463.184,367.168 450.5,367.5C 450.5,384.5 450.5,401.5 450.5,418.5C 436.167,418.5 421.833,418.5 407.5,418.5C 407.5,357.167 407.5,295.833 407.5,234.5 Z M 450.5,269.5 C 463.504,269.333 476.504,269.5 489.5,270C 514.687,272.848 524.853,286.681 520,311.5C 515.308,323.509 506.474,330.343 493.5,332C 479.171,332.5 464.837,332.667 450.5,332.5C 450.5,311.5 450.5,290.5 450.5,269.5 Z"/></g>
<g><path style="opacity:0.972" fill="#000000" d="M 928.5,567.5 C 928.5,580.5 928.5,593.5 928.5,606.5C 904.833,606.5 881.167,606.5 857.5,606.5C 858.833,593.5 858.833,580.5 857.5,567.5C 868.5,567.5 879.5,567.5 890.5,567.5C 890.008,541.233 885.842,515.567 878,490.5C 866.545,461.046 846.712,439.212 818.5,425C 810.067,420.969 801.567,417.136 793,413.5C 792.5,400.171 792.333,386.837 792.5,373.5C 823.161,381.994 850.495,396.494 874.5,417C 903.238,445.803 919.738,480.637 924,521.5C 925.789,536.958 927.289,552.292 928.5,567.5 Z"/></g>
<g><path style="opacity:0.973" fill="#fbaf16" d="M 142.5,714.5 C 135.167,714.5 127.833,714.5 120.5,714.5C 52.0816,706.744 11.7483,669.077 -0.5,601.5C -0.5,591.833 -0.5,582.167 -0.5,572.5C 11.8384,504.006 52.8384,466.506 122.5,460C 166.508,457.436 203.674,471.936 234,503.5C 260.248,536.496 269.248,573.83 261,615.5C 247.759,666.408 215.592,698.241 164.5,711C 157.045,712.325 149.712,713.491 142.5,714.5 Z M 119.5,492.5 C 160.689,489.014 192.522,504.348 215,538.5C 234.047,577.078 231.047,613.745 206,648.5C 179.047,677.121 146.214,687.288 107.5,679C 61.8892,665.375 37.8892,634.709 35.5,587C 39.0643,533.61 67.0643,502.11 119.5,492.5 Z"/></g>
<g><path style="opacity:0.972" fill="#fbaf16" d="M 440.5,714.5 C 433.167,714.5 425.833,714.5 418.5,714.5C 374.257,711.134 339.757,691.134 315,654.5C 289.34,606.734 290.673,559.734 319,513.5C 346.8,477.519 383.633,459.519 429.5,459.5C 475.547,459.94 512.38,478.274 540,514.5C 563.056,552.388 567.389,592.388 553,634.5C 538.029,671.471 511.529,695.971 473.5,708C 462.522,711.029 451.522,713.196 440.5,714.5 Z M 417.5,492.5 C 449.575,489.578 477.075,499.245 500,521.5C 525.874,553.082 531.541,588.082 517,626.5C 501.804,657.678 476.971,675.844 442.5,681C 400.315,685.153 367.815,669.653 345,634.5C 330.452,604.476 329.786,574.142 343,543.5C 359.311,514.018 384.145,497.018 417.5,492.5 Z"/></g>
<g><path style="opacity:0.973" fill="#fbae16" d="M 857.5,567.5 C 858.833,580.5 858.833,593.5 857.5,606.5C 847.066,662.103 814.399,696.936 759.5,711C 752.045,712.325 744.712,713.491 737.5,714.5C 730.167,714.5 722.833,714.5 715.5,714.5C 665.956,710.156 629.456,686.156 606,642.5C 588.952,600.877 590.952,560.211 612,520.5C 630.534,491.294 656.701,472.46 690.5,464C 736.931,453.217 778.931,462.217 816.5,491C 839.464,511.424 853.131,536.924 857.5,567.5 Z M 714.5,492.5 C 755.689,489.014 787.522,504.348 810,538.5C 829.047,577.073 826.047,613.739 801,648.5C 774.047,677.121 741.214,687.288 702.5,679C 656.889,665.375 632.889,634.709 630.5,587C 634.064,533.61 662.064,502.11 714.5,492.5 Z"/></g>
<g><path style="opacity:0.971" fill="#fbaf16" d="M 421.5,518.5 C 431.001,518.088 440.334,519.088 449.5,521.5C 450.667,565.163 450.833,608.83 450,652.5C 436.188,656.478 422.355,656.478 408.5,652.5C 407.167,608.833 407.167,565.167 408.5,521.5C 412.939,520.4 417.272,519.4 421.5,518.5 Z"/></g>
<g><path style="opacity:0.972" fill="#fbaf16" d="M 66.5,565.5 C 110.835,565.333 155.168,565.5 199.5,566C 201.885,572.752 202.885,579.752 202.5,587C 202.541,594.245 201.874,601.411 200.5,608.5C 155.833,608.5 111.167,608.5 66.5,608.5C 65.0922,601.573 64.0922,594.573 63.5,587.5C 64.0635,580.091 65.0635,572.758 66.5,565.5 Z"/></g>
<g><path style="opacity:0.971" fill="#fbaf16" d="M 661.5,565.5 C 705.838,565.167 750.172,565.5 794.5,566.5C 798.284,579.772 798.451,593.105 795,606.5C 772.883,607.828 750.549,608.495 728,608.5C 705.833,608.333 683.667,608.167 661.5,608C 657.516,593.834 657.516,579.667 661.5,565.5 Z"/></g>
</svg>
